<svg id="Layer_1" data-name="Layer 1" xmlns="http://www.w3.org/2000/svg" xmlns:xlink="http://www.w3.org/1999/xlink" viewBox="0 0 1442 1051"><defs><style>.cls-1{fill:none;}.cls-2{clip-path:url(#clip-path);}.cls-3{fill:#fff;}.cls-4{clip-path:url(#clip-path-2);}.cls-5{clip-path:url(#clip-path-3);}.cls-6{fill:#ffd831;}.cls-7{clip-path:url(#clip-path-4);}.cls-8{clip-path:url(#clip-path-5);}.cls-9{clip-path:url(#clip-path-6);}.cls-10{clip-path:url(#clip-path-7);}</style><clipPath id="clip-path"><rect class="cls-1" x="72" y="882" width="1370" height="169"/></clipPath><clipPath id="clip-path-2"><rect class="cls-1" width="1397" height="782"/></clipPath><clipPath id="clip-path-3"><rect class="cls-1" x="134" y="80" width="851" height="913"/></clipPath><clipPath id="clip-path-4"><rect class="cls-1" x="861" y="404" width="562" height="575"/></clipPath><clipPath id="clip-path-5"><rect class="cls-1" x="704" y="323" width="85" height="56"/></clipPath><clipPath id="clip-path-6"><rect class="cls-1" x="717" y="72" width="238" height="236"/></clipPath><clipPath id="clip-path-7"><rect class="cls-1" x="912" y="337" width="135" height="98"/></clipPath></defs><g class="cls-2"><ellipse class="cls-3" cx="757.01" cy="966.51" rx="685.01" ry="84.51"/></g><g class="cls-4"><path class="cls-3" d="M1065.57,216.11c56.64-41,92.88-153.65-128.49-132C862.41,91.48,735.92,71.4,633.25,40.8,295.8-60,125,45.9,57.8,144.93c-88.55,130.2-83.3,432.3,72.91,546.9,120.59,88.4,388,135.43,737,28.65C1027.33,671.63,1248.18,540,1376,398.93c52.8-58.29,12.53-193.6-188.78-128.13C1045.59,316.8,1029.05,242.54,1065.57,216.11Z"/></g><g class="cls-5"><polygon points="197.86 275.9 194.46 257.44 240.99 249.16 242.59 261.25 197.86 275.9"/><path d="M197.86,277.56a1.51,1.51,0,0,1-.85-.23,1.66,1.66,0,0,1-.78-1.13l-3.34-18.46a1.69,1.69,0,0,1,.27-1.25,1.64,1.64,0,0,1,1.08-.69l46.53-8.32a1.7,1.7,0,0,1,1.29.3,1.67,1.67,0,0,1,.67,1.13L244.39,261a1.66,1.66,0,0,1-1.13,1.8l-44.73,14.65A1.4,1.4,0,0,1,197.86,277.56Zm-1.46-18.79,2.77,15,41.6-13.64-1.18-9Z"/><rect class="cls-6" x="354.95" y="722.98" width="27.78" height="179.84"/><path d="M382.73,904.5H355a1.66,1.66,0,0,1-1.66-1.67V723a1.66,1.66,0,0,1,1.66-1.66h27.78A1.66,1.66,0,0,1,384.4,723V902.83A1.67,1.67,0,0,1,382.73,904.5Zm-26.11-3.33h24.44V724.64H356.62Z"/><path class="cls-6" d="M384.93,893.9H352.7L179.81,958.56c-28.54,7.25,79.13,30.05,187.46,31.28,111.32,1.26,223.32-19.31,188.85-31.28Z"/><path class="cls-6" d="M611.14,654.76s-116.5,102.61-319,73.29c-176.51-25.56-174-264.9-55.41-332.61C387.77,309.18,774.06,529.61,611.14,654.76Z"/><path d="M154.89,528.43s-13.63,79,32,139.26,121.4,62.41,148.66,64.54c-50.05-7.22-71.37-18.63-82-33.11s-14.91-17.85-25.14-14-26-4.24-34.92-39.48-11.08-39.5-20.87-39.91S152.35,582.77,154.89,528.43Z"/><path d="M363.46,734.92a499.07,499.07,0,0,1-71.52-5.22c-38.37-5.56-70.07-21.2-94.33-46.57-21.52-22.41-36.28-52.13-42.74-85.94a217,217,0,0,1,10.48-116.41C180,442.53,205,411.68,235.92,394c48.86-27.9,126.07-26.29,211.88,4.46,80.08,28.67,150.33,77.21,183.51,126.67C647.1,548.71,654,571.53,651.83,593c-2.37,23.53-15.68,44.76-39.54,63.11-1.35,1.16-30.91,26.46-84,47.89C490.36,719.24,434.3,734.92,363.46,734.92Zm-41-357.44c-33.2,0-62.16,6.45-84.83,19.4C176.16,432,142.76,516,158.16,596.61c13.76,72.09,62.71,119.44,134.33,129.8,104.16,15.08,185-5.54,234.4-25.48,53.61-21.62,83-47.15,83.24-47.41h0c56.22-43.24,41-92.63,18.35-126.49-32.75-48.89-102.41-96.94-181.85-125.39-44.75-16.11-87.12-24.16-124.21-24.16Z"/><path class="cls-3" d="M347.43,895.7s-103.94,47.56-100.1,60.71,14.9,24.2,42.59,29.31c-52.4-3.33-116.78-17.42-115-25.48C187.27,956,347.43,895.7,347.43,895.7Z"/><path d="M377,991.55h-9.76a935.44,935.44,0,0,1-131.8-11.09c-22.74-3.64-61-10.91-61.94-18.56-.4-3.24,4.15-4.47,5.79-4.89l172.78-64.6a1.58,1.58,0,0,1,.61-.12h32.23a2.06,2.06,0,0,1,.6.12l171.17,64.64c2,.68,8.12,2.82,7.37,7.1-1.67,9.13-40.59,16-63.68,19.24A920.43,920.43,0,0,1,377,991.55Zm-200.2-29.93c3.17,7,89.31,25.48,190.41,26.61,103.32,1.16,191.85-15.6,193.52-24.66.09-.55-.9-1.9-5.22-3.33L384.63,895.57H352.94L180.41,960.11h-.18a7.5,7.5,0,0,0-3.35,1.44Z"/><path d="M354.45,735.22S373.72,738.4,382,767.7c.55-14.65,1.67-33.76,1.67-33.76Z"/><path class="cls-6" d="M245.56,118c-9.42-13.57-68.18-45.75-56.67,53.51a1,1,0,0,0,0,.24h-.2a11.16,11.16,0,1,0,0,22.31h0a11.31,11.31,0,0,0,4.82-1.08c7.69,21.07,18.65,93.51,18.65,93.51l52.4,5.09-18.95-62.74a58.74,58.74,0,0,0,11.4-2C309,211.38,255,131.55,245.56,118Z"/><path d="M264.58,293.16h-.17l-52.4-5.1a1.66,1.66,0,0,1-1.48-1.4c-.1-.71-10.5-69.06-18-91.6a12.62,12.62,0,0,1-3.81.58A12.82,12.82,0,0,1,187,170.1c-5.39-48.71,6.82-64,18.08-68.18,16.37-6.14,36.7,7.85,41.81,15.18h0c12.9,18.58,41.84,64.86,32.06,92.56-3.33,9.23-10.49,15.57-21.52,18.85a55,55,0,0,1-9.69,1.82l18.35,60.77a1.67,1.67,0,0,1-1.11,2.08,2.1,2.1,0,0,1-.56.07Zm-50.95-8.31,48.63,4.69L244,229.27a1.66,1.66,0,0,1,.22-1.4,1.7,1.7,0,0,1,1.23-.73,57,57,0,0,0,11.08-1.91c10-2.94,16.43-8.58,19.32-16.75,9.54-27-21.74-75.41-31.67-89.58h0c-4.5-6.49-23.35-19.41-37.87-14-10.26,3.86-21.34,18.5-15.78,66.33v.29a1.69,1.69,0,0,1-.45,1.27,1.76,1.76,0,0,1-1.25.51h-.19a9.5,9.5,0,1,0,4.16,18.08,1.67,1.67,0,0,1,1.35,0,1.55,1.55,0,0,1,.92,1c7.2,19.64,17,82.38,18.55,92.49Z"/><path d="M258.19,116.35s1.9-3.09,3.19-24.84c1.57-26.61-59.43,8.93-77.95,9.56-18.1.55-26.07,42.84-2.07,69.53a4.36,4.36,0,0,0,4,1.36,15.23,15.23,0,0,1,11.91,3.48c8,6.42,6.81-.58,5.32-3.78-1.82-3.87-2.82-20.62,1.32-33.65C212.18,111.9,249.23,142.46,258.19,116.35Z"/><path d="M202.18,179.78c-2,0-4.27-1.66-6-3a13.56,13.56,0,0,0-10.6-3.14,6,6,0,0,1-5.47-1.88c-16.43-18.29-18.35-44.3-11.89-59.5,3.33-7.93,8.91-12.59,15.15-12.81,5.84-.2,16.53-4.19,27.86-8.31,19.62-7.32,39.9-14.87,48.2-8.77,2.65,1.8,3.87,5,3.62,9.25-1.14,19.34-2.79,24.26-3.34,25.39-5,14.21-17.79,12.94-29.11,11.85s-21.41-2.1-25.15,9.66c-4.1,13-3,29.07-1.38,32.43.12.25,2.75,6,0,8.13A3,3,0,0,1,202.18,179.78Zm-14.79-9.65a17.27,17.27,0,0,1,10.86,4,10.5,10.5,0,0,0,3.7,2.31,8.65,8.65,0,0,0-.92-4c-2.05-4.4-2.92-21.73,1.25-34.92,4.56-14.34,17.36-13.09,28.65-12,11.6,1.11,21.69,2.09,25.68-9.72a.85.85,0,0,1,.11-.26c.12-.25,1.82-4.19,3-24.13.18-3.15-.59-5.29-2.25-6.47-6.84-5-28,2.88-45,9.21-11.58,4.33-22.52,8.32-28.89,8.62-5,.16-9.3,4-12.2,10.77-6.09,14.27-4.2,38.73,11.31,56a2.71,2.71,0,0,0,2.45.83A14.86,14.86,0,0,1,187.39,170.13Z"/><path d="M761.54,525.33s90.83,64.33,115.12,66.36,12.68-1,12.68-1l-31.7,41.86L729.18,563.68Z"/><path d="M857.64,634.19a1.65,1.65,0,0,1-.78-.2L728.39,565.15a1.67,1.67,0,0,1-.67-2.26,1.85,1.85,0,0,1,.19-.27l32.37-38.37a1.66,1.66,0,0,1,2.25-.28c.9.65,90.72,64.09,114.28,66.07,5,.42,8.26.6,10.43.67l.78-1a1.66,1.66,0,0,1,1.75-.61c2.1.56,4.32,1.3,4,3.16-.18,1.1-.32,1.83-4.89,1.84L859,633.53A1.66,1.66,0,0,1,857.64,634.19Zm-125.88-71,125.41,67.25,27.58-36.59c-2.17-.09-4.87-.29-8.24-.58-23.19-1.94-103.2-57.7-114.7-65.77Z"/><path class="cls-6" d="M858.06,635.94l39.42,34,26.69-27.22-3.52-12.94s48.58-24.61,62.67-74.3c-13.35-6.8-20.43.68-36.62,10.21s-51.56,27.37-72.33,25.14A181.61,181.61,0,0,1,858.06,635.94Z"/><path d="M897.43,671.63a1.69,1.69,0,0,1-1.1-.4l-39.42-34a1.67,1.67,0,0,1-.37-2.07,179.73,179.73,0,0,0,16.21-44.58,1.68,1.68,0,0,1,1.82-1.3c18.07,2,49.7-12.2,71.29-24.94,2.72-1.67,5.12-3.1,7.44-4.56,11.33-7.1,18.82-11.79,30.78-5.7a1.65,1.65,0,0,1,.85,1.93c-12.88,45.43-54.67,70.44-62.31,74.7l3.17,11.64a1.65,1.65,0,0,1-.42,1.66l-26.69,27.22A1.69,1.69,0,0,1,897.43,671.63Zm-37.34-36.09,37.24,32.15,25-25.43-3.33-12a1.65,1.65,0,0,1,.85-1.93c.48-.23,47.23-24.44,61.43-71.94-9.55-4.32-15.62-.51-26.26,6.15-2.24,1.42-4.76,3-7.51,4.61-4.79,2.83-46.85,27.06-71.86,25.49A187.44,187.44,0,0,1,860.09,635.54Z"/><path d="M665.48,792.79s3.07,108.73,16.3,128.68,8.59,9.07,8.59,9.07L636.74,932,615.45,807.13Z"/><path d="M690.87,935.14c-.68,0-1.67-.61-3.48-2.94l-50.6,1.36h0a1.65,1.65,0,0,1-1.67-1.38L613.81,807.33a1.66,1.66,0,0,1,1.19-1.88l50-14.25a1.66,1.66,0,0,1,2.13,1.54c0,1.08,3.21,108.55,16,127.74,2.7,4,4.55,6.65,5.82,8.31h1.34a1.66,1.66,0,0,1,1.53,1c.83,1.94,1.59,4.1,0,5A2,2,0,0,1,690.87,935.14ZM617.33,808.21l20.81,122,46.79-1.26c-1.23-1.66-2.73-3.89-4.55-6.65-12.45-18.66-16-111.56-16.5-127.36Z"/><path class="cls-6" d="M634.17,934.26l-3.66,51L669.17,989l8.34-10.62s51.45,25.12,100.7,5.43c-2.64-14.4-13.06-15.18-30.78-21.71s-58.91-29-64.55-43.71A220.16,220.16,0,0,1,634.17,934.26Z"/><path d="M737.55,993a156.08,156.08,0,0,1-59.47-12.5l-7.61,9.59a1.69,1.69,0,0,1-1.47.62l-38.64-3.76a1.67,1.67,0,0,1-1.52-1.76l3.67-51a1.66,1.66,0,0,1,1.37-1.51,221,221,0,0,0,48.38-15.74,1.73,1.73,0,0,1,1.34,0,1.67,1.67,0,0,1,.93,1c5.19,13.69,44.68,35.76,63.6,42.72,3,1.1,5.66,2,8.34,2.9,12.76,4.31,21.21,7.15,23.56,20.09a1.65,1.65,0,0,1-1,1.84A111.08,111.08,0,0,1,737.55,993Zm-60-16.23a1.72,1.72,0,0,1,.73.19c.5.23,50.47,24.11,98.05,5.87-2.32-9.87-9.13-12.16-21.07-16.2-2.52-.85-5.37-1.81-8.34-2.91-16.32-6-56.73-27.42-64.82-43.06a226.36,226.36,0,0,1-46.35,15l-3.45,48.09,36.12,3.51,7.86-10a1.68,1.68,0,0,1,1.27-.53Z"/><path class="cls-3" d="M299.16,297.05A4.42,4.42,0,0,1,305,295a4.18,4.18,0,0,1,.68.4c31.7,23,78.11,67,162.06,80.77,94,15.37,196.13-27.84,196.13-27.84l15.84,28.57s-169.61,89.09-274.43,65S228.83,366,228.83,366C265.8,332.94,283.22,329.45,299.16,297.05Z"/><path class="cls-6" d="M399.6,408.69S385.12,379,382.13,368.35s10.23-6.37,21.69,7.21,32.37,28,40.46,30.15-8.09-23.28,5.1-20.8,27.26,11.46,39.19,10.61,7.68-6.79,29.83-7.22,45.58-5.52,57.93-14.85c-20.41,2.56-132,28-230.67-49.57-1.45-1.33-2.83-2.6-4.17-3.78a4.4,4.4,0,0,0-6.86,5.24l33,60.85Z"/><path d="M444.61,447.7a179.05,179.05,0,0,1-39.71-4.1C301,419.73,228.56,367.91,227.84,367.4a1.67,1.67,0,0,1-.68-1.27,1.65,1.65,0,0,1,.55-1.33c12.13-10.84,22-18.41,30.71-25.07,17.27-13.31,28.67-22,39.21-43.41a6.12,6.12,0,0,1,9-2.23c4.49,3.33,9.3,7,14.38,10.88,31.7,24.43,75.26,57.87,147,69.6,92.45,15.1,194.18-27.29,195.2-27.73a1.67,1.67,0,0,1,2.12.74l15.86,28.55a1.65,1.65,0,0,1-.65,2.26l0,0C679,379.21,547.23,447.7,444.61,447.7ZM231.5,365.89c11.48,7.88,79.68,52.78,174.15,74.46,97.79,22.44,254.69-55.41,271.78-64.1l-14.28-25.78c-12.63,5.07-108.2,41.67-195.67,27.37C394.94,366,351.07,332.24,319,307.6c-5-3.89-9.86-7.59-14.31-10.81a2.74,2.74,0,0,0-3.81.56,2.13,2.13,0,0,0-.26.44h0c-10.9,22.13-22.54,31.06-40.19,44.56C252.17,348.71,242.83,355.86,231.5,365.89Z"/><path class="cls-3" d="M455,484.47l-159.79,130s-131.8-183.85-129.3-304a4.47,4.47,0,0,1,.57-2.08,81,81,0,0,1,35-34.11c7.06-3.44,23.36-12.25,36.32-7.45a4.12,4.12,0,0,1,2,1.67c5,7.4,9.79,15,13.53,21,.1.17.2.35.32.52,2.47-6.49,5.4-11.94,6.85-16.05a4.41,4.41,0,0,1,5.51-2.68c40.34,12.76,75.29,38.25,101.45,112C413.25,410.27,455,484.47,455,484.47Z"/><path d="M295.18,616.15H295a1.64,1.64,0,0,1-1.13-.68c-1.34-1.87-132.12-185.69-129.62-305.06a6.22,6.22,0,0,1,.79-2.85,83.12,83.12,0,0,1,35.73-34.8l1.4-.68c7.6-3.76,23.36-11.65,36.24-6.84a5.88,5.88,0,0,1,2.79,2.25c4,5.85,8.22,12.42,12.14,18.74.92-2.23,1.87-4.29,2.74-6.21,1.17-2.57,2.18-4.78,2.87-6.65a6,6,0,0,1,7.59-3.79c34.67,11,73.92,32.9,102.32,112.5,45.46,27.19,87.17,100.85,87.62,101.58a1.66,1.66,0,0,1-.45,2.11l-159.74,130A1.72,1.72,0,0,1,295.18,616.15ZM229.56,267.07c-9.77,0-20.23,5.19-25.89,8l-1.42.7a79.81,79.81,0,0,0-34.35,33.43,3.07,3.07,0,0,0-.35,1.29c-2.37,112.69,115.67,284,128,301.59L452.82,484c-5.62-9.7-44.51-74.84-86.22-99.43a1.73,1.73,0,0,1-.74-.88C338,305,299.47,283.43,265.5,272.69a2.74,2.74,0,0,0-3.34,1.66c-.72,2-1.77,4.33-3,7s-2.63,5.81-3.9,9.1a1.67,1.67,0,0,1-3,.26l-.25-.39c-4.32-7.06-9.11-14.49-13.55-21a2.61,2.61,0,0,0-1.18-1A22,22,0,0,0,229.56,267.07Z"/><path class="cls-6" d="M294.06,607.58s49.1,73.51,144.14,15.32S572.85,520.29,587.12,528,721.25,622.9,784.65,636.69c12.78-14.44,56.61-63.38,56.61-63.38S668.13,462.89,628.46,434C557.37,382.3,357.42,520.29,294.06,607.58Z"/><path class="cls-6" d="M378.14,644.72s173.21-5.42,193.8,14.48,56.37,230.16,56.37,230.16l91-29.42S680.58,596,663.2,564.5C634.37,512.2,467.08,513,385.92,517c-18.52,15.93-38.71,35.59-38.71,35.59Z"/><path class="cls-3" d="M581.48,424c-52.39,14.65-77.31,27.61-147.16,72.39-24.71,16-70.49,39.3-70.49,39.3S482.45,427.15,581.48,424Z"/><polygon class="cls-3" points="251.85 249.16 259.21 273.99 288.27 283.87 268.79 253.3 251.85 249.16"/><path d="M288.27,285.53a2.35,2.35,0,0,1-.53,0l-29.08-10a1.67,1.67,0,0,1-1.05-1.1l-7.36-24.84a1.66,1.66,0,0,1,2-2.08l16.88,4.14a1.68,1.68,0,0,1,1,.71L289.62,283a1.6,1.6,0,0,1-1.35,2.56Zm-27.71-12.84,23.76,8.08-16.59-26-13.46-3.33Z"/><path d="M375,651.21a96.75,96.75,0,0,1-43-10,108.37,108.37,0,0,1-39.28-32.7,1.64,1.64,0,0,1,0-1.89C317.8,572,363.65,530,415.3,494.19c57-39.48,111.23-64.86,152.75-71.38,26-4.12,46.71-.78,61.38,10,39.19,28.48,211,138.13,212.71,139.22a1.67,1.67,0,0,1,.75,1.18,1.65,1.65,0,0,1-.4,1.33c-.43.49-44,49.11-56.61,63.38a1.67,1.67,0,0,1-1.66.52c-31.3-6.81-86.52-38.25-116.67-56.55a1.65,1.65,0,0,1-.57-2.27,1.68,1.68,0,0,1,2.29-.58h0C698.93,596.91,753,627.76,784,634.89c12.07-13.64,47.41-53.1,54.67-61.2-17.75-11.42-173.94-111.2-211.15-138.32-13.93-10.13-33.73-13.31-58.87-9.3-41.06,6.48-94.81,31.6-151.37,70.83-50.9,35.25-96.06,76.49-121.14,110.68a108.43,108.43,0,0,0,37.46,30.7c32.93,16.17,69.33,12.29,108.19-11.49,47.08-28.83,85.43-59.87,113.44-82.47,30.88-24.94,47.9-38.73,56.06-34.34a1.66,1.66,0,0,1-1.58,2.93c-6.21-3.33-26.58,13.14-52.37,34-28.08,22.7-66.52,53.77-113.8,82.72C417.33,645.63,394.26,651.21,375,651.21Z"/><path d="M628.31,891a1.68,1.68,0,0,1-1.67-1.34c-.42-2-41.54-204.54-54-229.65-6.67-13.31-10.71-14.14-48.38-9.6-24.72,3-57,.7-88.2-1.51-21.39-1.52-41.59-2.95-57.81-2.55h0a1.66,1.66,0,1,1,0-3.32c16.4-.4,36.7,1,58.13,2.56,31,2.19,63.16,4.45,87.57,1.53,37.53-4.53,44.12-4.11,51.85,11.42,12.18,24.51,49.51,207,53.94,228.65l87.9-28.46c-3.07-20.72-39.36-263.71-55.76-293.47-9.44-17.12-36.32-29.8-79.91-37.7a1.66,1.66,0,0,1-1.35-1.92h0a1.67,1.67,0,0,1,1.93-1.36h0c44.61,8.08,72.29,21.33,82.23,39.38,17.34,31.45,54.76,285.19,56.34,296a1.65,1.65,0,0,1-1.13,1.81L628.83,891A1.81,1.81,0,0,1,628.31,891Z"/><path d="M361.69,537.77a66.91,66.91,0,0,0,12.78,41.93c14.9,20.8,65.8,45.84,112.45,15.6-7.58,16.13-45.95,52-45.95,52s-69.43-12.73-98.83-89.17A259.29,259.29,0,0,1,361.69,537.77Z"/><path d="M559.12,560.61c-7.35,18.14-9.92,43.13,3.19,36.83,7.76-3.72,11.08-6.65,16.83-7,10.43-.51-5,20.36,4.48,15.93,23.35-10.82,24.27-20.58,30.66-31.21s16.18,7.22,3.42,24.21-.13,23.09-4.59,27.81c-9.57,10.19-20.77,35.35-20.77,35.35l-68.4-35.57C492.07,589.49,503.32,568.65,559.12,560.61Z"/><path d="M404.5,483.59a1.65,1.65,0,0,1-1.58-1.11c-.22-.62-22.06-62.17-66.35-88.29a1.68,1.68,0,0,1-.62-.62c-20.29-36.58-40.36-69.29-80.66-100.34a6,6,0,0,1-2-7l12.95-32.91a1.68,1.68,0,0,1,3.12,1.23l-13,32.9a2.73,2.73,0,0,0,.9,3.15c40.68,31.32,60.93,64.26,81.33,101,45.05,26.87,67.2,89.2,67.42,89.8a1.66,1.66,0,0,1-1,2.12h0A2,2,0,0,1,404.5,483.59Z"/><path class="cls-6" d="M517.6,642.21c-34.13,4.77-131.53,8-160.94-73.17s-104.07-71-133.47-98.12c0,0-51.89,96.25,45.23,160.79S517.6,642.21,517.6,642.21Z"/><path d="M397.48,624c82.63-17.42,142.69-64.13,181.45-95.54-29.4,34.39-16,41.39-31.3,49s-25.36,20.8-29.18,32.89S561.68,641.48,554,647.2c-19.17,3.19-51.49,9.69-69.22,7.33C446.46,649.43,411.53,634.14,397.48,624Z"/><path d="M499.25,650.49a221.46,221.46,0,0,1-61.38-8.4c-41.46-12.29-70.07-37.32-82.78-72.39-19.46-53.66-59.6-67.07-91.86-77.84-16.68-5.61-31.23-10.43-41.18-19.59-8.77-8.07-13.19-17.07-13.11-26.71.14-17.26,14.52-30.28,15.12-30.83a1.67,1.67,0,1,1,2.23,2.48c-.15.13-13.91,12.62-14,28.4,0,8.66,4,16.81,12,24.21,9.42,8.68,23.59,13.41,40,18.88,32.95,11,73.95,24.69,93.94,79.82,28.36,78.26,128.8,82.24,165.17,77.16a181.43,181.43,0,0,0,44.07-12.32,1.67,1.67,0,0,1,2.15,1,1.65,1.65,0,0,1-.85,2.09A185.38,185.38,0,0,1,523.92,649,181.67,181.67,0,0,1,499.25,650.49Z"/><path class="cls-3" d="M355.89,613.36s11.33,17.57,26.34,26.27,8.84,12.57-3,9.7S353.77,636.85,345,622.72,348.63,604.51,355.89,613.36Z"/><path class="cls-3" d="M409.27,650.64c-3.58-1.93-12,2.28-5.25,7.63s12.55,6,20.34,6.65,7.62-3.7,2.9-5.75S413.78,653,409.27,650.64Z"/><path class="cls-3" d="M167.52,309.34S127.21,354,137.34,464s244.32,35.52,244.32,35.52l-13.51-27s-120.47,23.68-142.53-11.84S264,394.24,277.51,350.25C212.76,321.33,206.81,248.73,167.52,309.34Z"/><path class="cls-6" d="M158.67,322.18a36,36,0,0,1,18.71-17.41c14.06-5.94,21.92,9.68,4.27,30.58C168,351.48,156.77,343.3,152.52,356s-5.54,29.72,7.66,19.52,6.82-4.67,14.06-9.76,21.69-3-7.24,27.18c-39.81,41.42-20.87,68.36-14.48,56s25.56-24.2,17.88-8.92-17.88,54.78-.85,69.63c-25.09-10.17-32.86-33.56-34.05-69.19C134.23,401.89,146.31,348.51,158.67,322.18Z"/><path d="M236.87,525.88c-28.76,0-55.87-4.41-74.91-17-15.61-10.31-24.44-25.37-26.29-44.75-10-109.42,27-153.78,28.59-155.62a1.67,1.67,0,1,1,2.54,2.18c-.38.45-37.8,45.35-27.8,153.09,1.67,18.3,10,32.6,24.75,42.33,57.82,38.24,197.73-2.28,215.55-7.67l-12.12-24.15C354,477,253.4,496.66,232.05,462.21c-18-29-1-63.36,15.76-90.07a1.67,1.67,0,0,1,2.95,1.56,1.37,1.37,0,0,1-.13.2c-24.17,38.47-29,65.17-15.75,86.56,21.19,34.12,131.8,10.58,132.89,10.33a1.67,1.67,0,0,1,1.85.88l13.58,27.06a1.71,1.71,0,0,1-1,2.32C377.76,502.4,303,525.88,236.87,525.88Z"/><path class="cls-6" d="M365.78,472.68,373,502l8-1.89c7.11-1.66,18.86.61,24.81,9.53s11.2,22.46,12.9,26.29,6.27,2.59,5.42-1.66-4.25-21.62-4.25-21.62,13.19,22.08,15.76,29.72,8.78,2.29,8.78.59c2.67,7.12,10.49,5.89,10,.8,2.87,3.18,9.26,2.71,4.3-10.82-9.29-25.41-31.86-49.46-44.46-54.68C405.5,474.53,388.59,467,365.78,472.68Z"/><path d="M450.52,549.55a7.82,7.82,0,0,1-6.28-3.45,7.58,7.58,0,0,1-3.6,1.82c-1.39.21-4.82.16-6.57-5.08-1.47-4.37-6.68-13.83-10.65-20.83.94,4.74,1.95,9.86,2.35,11.92a4.6,4.6,0,0,1-2.81,5.74,4.81,4.81,0,0,1-5.78-3.1l-1.2-2.81c-2.33-5.58-6.67-16-11.54-23.28-5.69-8.53-16.9-10.31-23-8.84l-8,1.89a1.67,1.67,0,0,1-2-1.21l-7.17-29.24a1.66,1.66,0,0,1,1.22-2c22.65-5.64,39.67,1.46,48.8,5.27l.8.33c13.93,5.77,36.3,30.8,45.39,55.65,3.44,9.36,1.67,12.84-.45,14.1a4.77,4.77,0,0,1-4.29.12A5.36,5.36,0,0,1,452,549.4,7.14,7.14,0,0,1,450.52,549.55Zm-6.09-8.32a1.67,1.67,0,0,1,1.56,1.08c1.19,3.16,3.49,4.21,5.18,3.83a2,2,0,0,0,1.67-2.28v0a1.66,1.66,0,0,1,2.9-1.25c.85.95,2,1.26,2.47,1,.76-.46,1.57-3.17-1-10.11-9.38-25.64-32.05-48.94-43.54-53.71l-.8-.34c-8.56-3.55-24.3-10.12-45-5.48L374.24,500l6.37-1.53c8.26-1.95,20.39,1,26.6,10.24,5,7.5,9.46,18.1,11.84,23.77.49,1.16.89,2.11,1.17,2.76.48,1.1,1.23,1.41,1.67,1.28s.77-.93.56-1.93c-.85-4.24-4.25-21.62-4.25-21.62a1.67,1.67,0,0,1,3.07-1.16c.53.91,13.35,22.31,15.9,30.05.45,1.29,1.23,2.84,2.52,2.86h0a4.18,4.18,0,0,0,3-1.9,1.67,1.67,0,0,1,1.37-1.48Z"/><path d="M672.87,596.58s-2.55,63.67-14.06,93S669,714.4,676.06,702.86s0,68.18-7,88.54,9.6,17.19,19.81-15.29,10.86-44,10.86-44Z"/><path d="M753.3,624.93s-24.86-19.66-35-39.18-11.5,6.37-20.87-.85S673.54,564.1,665,544.14s-23-18.29-26-15.3-15.77-26.74-33.65-19.52-25.95,17.41-25.95,17.41,41.31,5.94,53.24,13.15,24.71,8.07,31.1,26.33S668,579,668,579,725.62,619.82,753.3,624.93Z"/><path d="M221.5,219.23s10.15,10.74,25.38,9.56h0l1.67,11.64h0C246.05,239.65,229.73,234.16,221.5,219.23Z"/><path d="M248.63,242.13h-.47c-3.23-1-19.67-6.66-28.12-22a1.68,1.68,0,0,1,.3-2.37,1.7,1.7,0,0,1,2.38.31c0,.1,9.8,10.16,24,9.05a1.81,1.81,0,0,1,1.85,1.51l1.67,11.64a1.66,1.66,0,0,1-1.64,1.9Zm-19.35-15.34A51.22,51.22,0,0,0,246.6,238l-1.11-7.43A33,33,0,0,1,229.28,226.79Z"/><path d="M224.91,161.49a1.67,1.67,0,0,1-.13-3.33h0s8.48-.65,12.28-3.67a1.68,1.68,0,0,1,2.35.24h0a1.66,1.66,0,0,1-.32,2.32c-4.55,3.67-13.69,4.44-14.08,4.44Z"/><path d="M248.45,201.4a12.67,12.67,0,0,1-2.62-.1,1.67,1.67,0,0,1,.33-3.33c.14,0,13.6,1.28,21.69-6.93a1.67,1.67,0,0,1,2.56,2.13l-.17.18C263.23,200.53,253.17,201.4,248.45,201.4Z"/><path d="M251.1,151.68a1.67,1.67,0,0,1-.13-3.33c2.15-.15,8.34-1,11.22-3.33a1.67,1.67,0,0,1,2.09,2.6c-4.29,3.41-12.71,4-13.08,4.07Z"/><path d="M255.3,183.87a1.68,1.68,0,1,1-.51-3.33,6.27,6.27,0,0,0,3.33-2.16,1.17,1.17,0,0,0-.15-.46l-.1-.17c-1.3-2.38-10.42-17.83-10.54-17.93a1.67,1.67,0,0,1,2.7-1.95,1.69,1.69,0,0,1,.17.29c.38.63,9.11,15.37,10.58,18.13a3.65,3.65,0,0,1,.5,3.32c-.9,2.66-4.71,4-5.46,4.26A1.51,1.51,0,0,1,255.3,183.87Z"/><path d="M291.41,479.6s-28.55,3.33-42.18-20.8c-4.54-8.07-19.85-13.31-6.39-31,6.83-8.92,10.66-11.48,9-17.85-3.34-12.35-2.28-14.21,10.64-20.37,27.68-13.17-1.66-46.71-13.63-19.95-6.47,14.5-27.26,49.25-22.15,75.15C231.45,469,254.77,481.71,291.41,479.6Z"/><polygon class="cls-3" points="194.46 258.07 188.07 280.57 225.12 311.57 238.75 266.67 194.46 258.07"/><path d="M225.12,313.23a1.65,1.65,0,0,1-1-.41l-37.1-31a1.66,1.66,0,0,1-.54-1.66l6.39-22.5a1.67,1.67,0,0,1,1.94-1.18L239.1,265a1.67,1.67,0,0,1,1.12.77,1.62,1.62,0,0,1,.17,1.34l-13.63,44.9a1.68,1.68,0,0,1-1.14,1.12A1.4,1.4,0,0,1,225.12,313.23ZM190,280l34.3,28.71,12.36-40.76L195.73,260Z"/><path d="M626.16,432S640.22,443.5,647,471.1s26.84,46.72,27.26,28.46,12.78-19.54,28.54,5.93,40.63,15.84,53.39,23.9S803.94,551,803.94,551Z"/><polygon points="380.86 894.85 507.37 980.2 548.26 971.07 386.82 894 380.86 894.85"/><polygon points="377.83 894.63 486.92 982.31 456.25 985.92 372.72 894.63 377.83 894.63"/><path d="M192.39,183.85a1.65,1.65,0,0,1-1.3-.63,3.25,3.25,0,0,0-4.55-.53l-.15.13a1.67,1.67,0,1,1-2-2.64,6.54,6.54,0,0,1,9.21.8l.15.18a1.65,1.65,0,0,1-1.32,2.69Z"/><path d="M882.06,593.13a28.25,28.25,0,0,1-6.67-.68,1.66,1.66,0,0,1-.63-2.91,46,46,0,0,0,7.2-7.68,129.07,129.07,0,0,1,10.36-11.56A12.46,12.46,0,0,1,905,567a9.13,9.13,0,0,1,6.47,6.94c.37,2.28,0,6.8-6.3,11.47A38.51,38.51,0,0,1,882.06,593.13Zm-2.43-3.44a35.4,35.4,0,0,0,23.47-7c3.66-2.69,5.42-5.62,5-8.31a5.81,5.81,0,0,0-4.14-4.36,9.2,9.2,0,0,0-9.28,2.58,122.79,122.79,0,0,0-10.11,11.27A68.11,68.11,0,0,1,879.63,589.69Z"/><path d="M875.36,590.54a1.67,1.67,0,0,1-1.37-.7c-.47-.66-2.69-4.69-.33-19.46,1.05-6.5,4.28-8.46,6.13-9.06a8.7,8.7,0,0,1,8.71,2.58,9.94,9.94,0,0,1,2.62,10.18c-3.13,9.54-14.48,16-15,16.24A1.81,1.81,0,0,1,875.36,590.54ZM882,564.31a4.05,4.05,0,0,0-1.15.17c-1.92.63-3.34,2.91-3.85,6.42-1.39,8.7-1.09,13.3-.69,15.41,3.15-2.09,9.63-7,11.68-13.3a6.62,6.62,0,0,0-1.82-6.8,6.09,6.09,0,0,0-4.24-1.93Z"/><path d="M713.9,942.41a24.72,24.72,0,0,1-8.16-1.56c-18.92-6.65-24-19.49-24.19-20a1.67,1.67,0,0,1,1-2.15,1.75,1.75,0,0,1,1.11,0A67,67,0,0,0,695.44,921c4.43.62,10,1.4,17.27,3.08,5.54,1.28,9.51,4.51,10.6,8.6a7.2,7.2,0,0,1-2.06,7.31A10.5,10.5,0,0,1,713.9,942.41Zm-27.43-19.54c2.67,4,8.66,10.71,20.37,14.84,5.4,1.91,10,1.84,12.16-.19a3.86,3.86,0,0,0,1.09-4c-.61-2.24-3-5-8.13-6.21-7.19-1.67-12.4-2.38-17-3-3.16-.43-5.88-.82-8.51-1.4Z"/><path d="M704.25,925.37c-10.19,0-21.77-4.69-22.32-5a1.66,1.66,0,0,1-.89-2.18,1.68,1.68,0,0,1,1.44-1c.1,0,5.82-.43,19.24-7.58,6.55-3.49,10.31-1.83,12-.51a8.42,8.42,0,0,1,2.5,8.89,9.55,9.55,0,0,1-7.92,7A28.44,28.44,0,0,1,704.25,925.37Zm-15.8-6.17c5.14,1.66,13.1,3.52,19.31,2.59a6.11,6.11,0,0,0,5.18-4.61,5.23,5.23,0,0,0-1.33-5.42c-1.77-1.39-4.7-1.08-8.34.83A95.38,95.38,0,0,1,688.45,919.2Z"/><path d="M529.09,648.16s27.48-4.46,48.57-17.19,30.66,2.54,23.64,12.73-20.45,49.68-7,42,22.37,3.19,17.25,21.62-6.39,53.5.65,50.94,5.74,68.18,5.74,68.18-34.12-148-41.84-165.59C563.91,633.19,529.09,648.16,529.09,648.16Z"/><path d="M616.57,648.74a307.06,307.06,0,0,0,18.11-33.12c5.43-11.64,10-5.86,9.56,1.93-1,17.24-14.14,41.24-15.63,44C623.42,671.29,610.08,664,616.57,648.74Z"/><path class="cls-6" d="M923.91,577.78s5.75,11.79-6.39,18.48-35.47,11.79-46,8.6"/><path d="M879.74,607.5a30.58,30.58,0,0,1-8.62-1,1.67,1.67,0,1,1,1-3.19c10.21,3.09,33.11-2.06,44.71-8.45a12.19,12.19,0,0,0,5.69-16.29,1.67,1.67,0,0,1,3-1.54l0,.09c0,.13,6.29,13.3-7.09,20.65A92.8,92.8,0,0,1,879.74,607.5Z"/><path class="cls-6" d="M670,925.2a58.53,58.53,0,0,0,31.24,27.71c10.23,4.45,17.9-3.5,17.9-3.5"/><path d="M707.52,955.92a17.24,17.24,0,0,1-6.9-1.48,59.76,59.76,0,0,1-32.17-28.56,1.67,1.67,0,0,1,3-1.35h0a57.51,57.51,0,0,0,30.38,26.88c9.06,3.94,15.82-2.81,16.1-3.11a1.67,1.67,0,0,1,2.36,0,1.65,1.65,0,0,1,0,2.35A19.63,19.63,0,0,1,707.52,955.92Z"/><polygon points="631.96 971.38 677.64 977.12 669.17 988.99 630.51 985.23 631.96 971.38"/><polygon points="888 662.13 919.55 628.69 924.19 642.52 898.38 671.44 888 662.13"/><path d="M445.08,545.64a1.67,1.67,0,0,1-1.67-1.4,105.84,105.84,0,0,0-9.09-26.61,1.66,1.66,0,0,1,.7-2.23,1.68,1.68,0,0,1,2.25.7,106.11,106.11,0,0,1,9.43,27.58,1.67,1.67,0,0,1-1.37,1.91Z"/><path d="M332.3,731.89s66.88,1.27,124-21.23c57.92-22.84,104.35-21.24,69.43-7.65S405.57,742,332.3,731.89Z"/><path d="M169.59,511.45s14.89,24.94,62.19,25.89c61.33,1.28,78.41-14,108.61,0-11.08-12.31-22.14-22.5-22.14-22.5S204.94,536.06,169.59,511.45Z"/><path d="M413.66,605.71s37.49,12.73,65.6-15.3a133.87,133.87,0,0,0,37.91-69.63c3-13.59,12.34-25.9,11.92-.85s7.25,35.24,18.36,16.63,12.34-25.48,13.63-31,11.93,0,7.24,17.83S530,587.08,503.14,600.67,454.55,625.23,413.66,605.71Z"/><path d="M599.06,531s-26.52-5.94-45,41.58c0-11,12.76-38.75,29.38-48.61A26.89,26.89,0,0,1,599.06,531Z"/><path d="M199.83,679.11a1.65,1.65,0,0,1-1.48-.86C171,627.12,216.82,532.13,218.77,528.13a1.67,1.67,0,1,1,3,1.36.2.2,0,0,1,0,.08c-.47,1-47,97.49-20.47,147.1a1.66,1.66,0,0,1-.67,2.25h0A1.82,1.82,0,0,1,199.83,679.11Z"/><path d="M277.34,724.13a1.6,1.6,0,0,1-.68-.15c-52.9-24.28-19.72-113.49,6.94-185.21l3.34-8.8a1.66,1.66,0,0,1,2.14-1h0a1.66,1.66,0,0,1,1,2.13l-3.33,8.81c-26.18,70.42-58.76,158-8.68,181a1.66,1.66,0,0,1,.83,2.2,1.68,1.68,0,0,1-1.53,1Z"/><path d="M335.7,733.89a1.6,1.6,0,0,1-.68-.15c-46.4-21.29-18-95.14,7-160.31,3.09-8,6-15.64,8.76-23.09a1.68,1.68,0,0,1,3.14,1.17c-2.77,7.45-5.69,15.07-8.78,23.11-24.49,63.8-52.27,136.1-8.71,156.09a1.66,1.66,0,0,1,.82,2.21h0A1.68,1.68,0,0,1,335.7,733.89Z"/><path d="M400,731.78a1.57,1.57,0,0,1-.7-.17c-31.3-14.35-10.33-70.89,5-112.18l1.3-3.48a1.67,1.67,0,0,1,3.21.89,1.34,1.34,0,0,1-.09.26l-1.29,3.47c-14.86,40.08-35.22,95-6.67,108.1a1.65,1.65,0,0,1,.82,2.19A1.69,1.69,0,0,1,400,731.78Z"/><path d="M471.52,714.78a1.69,1.69,0,0,1-.7-.15c-19.52-9-7.66-40.86,1.88-66.52l1.16-3.09a1.67,1.67,0,0,1,3.12,1.15l-1.16,3.11c-9,24.34-20.32,54.64-3.6,62.31a1.65,1.65,0,0,1,.82,2.2h0A1.66,1.66,0,0,1,471.52,714.78Z"/><path d="M390.44,732H390c-92.29-22.84-143.66-79.28-170.49-122.62-29.08-46.94-36.42-89.12-36.48-89.53a1.69,1.69,0,1,1,3.33-.55c0,.42,7.34,42,36.11,88.44,26.45,42.69,77.19,98.43,168.41,121a1.68,1.68,0,1,1-.4,3.33Z"/><path d="M473.09,709.21c-31.7,0-61-5.72-87.56-17.11-30.61-13.16-57.55-33.86-80.08-61.53a277.14,277.14,0,0,1-50.81-99.23,1.71,1.71,0,0,1,3.33-.77,273.47,273.47,0,0,0,50.22,98c34.85,42.78,99.23,90.32,208,74a1.68,1.68,0,1,1,.5,3.33A292.8,292.8,0,0,1,473.09,709.21Z"/><path class="cls-6" d="M756.12,365.59a5.21,5.21,0,0,1-2.48-.12c1.66-1.83,3.12-3.64,4.45-5.19,4.15-4.79,5.44-10.19,0-12.11-3.62-1.28-6.67,1.92-12.23,7.7-2.18,2.28-7.34,2.3-11.49,1.88-12.83-6.07-26.46-13.33-26.46-13.33a92.28,92.28,0,0,0,9.26-4.13c8.79-4.7,13.53-19.54,1.66-15.4s-18.26,6.65-30.66,11.89c-11.38,4.84-19.65,10.2-32.32,15l9,32.58s3-1.28,6.68-2.71c11.12-4.34,34.93,6.43,62,9.88,14.84,1.87,25.14-5.09,30.24-14S763.16,363.26,756.12,365.59Z"/><path d="M738.22,393.46a38.12,38.12,0,0,1-4.89-.32,267.47,267.47,0,0,1-30.83-6.33c-13-3.23-24.19-6-30.31-3.65-3.66,1.43-6.68,2.7-6.68,2.7a1.69,1.69,0,0,1-1.36,0,1.67,1.67,0,0,1-.89-1.07l-9-32.64a1.68,1.68,0,0,1,1-2A182.78,182.78,0,0,0,674,341.64c4.24-2.13,8.63-4.34,13.52-6.42C700,330,706,327.6,718.3,323.3c6.26-2.2,8.34.63,8.86,1.93,2,4.55-2.7,13-9.18,16.49-2.05,1.1-4.3,2.11-6.1,2.88,4.72,2.49,14,7.33,23,11.56,5,.48,8.51,0,9.81-1.4,5.83-6.09,9.35-9.76,14-8.12a6.46,6.46,0,0,1,4.52,4.44c.77,2.88-.62,6.66-3.8,10.32l-1.67,1.87-.25.3a8.47,8.47,0,0,1,8.21,2.61c2.43,3,2.27,7.39-.47,12.16A30.21,30.21,0,0,1,738.22,393.46ZM678,378.94c6.67,0,15.23,2.13,25.31,4.64a260.56,260.56,0,0,0,30.45,6.27c17.66,2.24,25.87-8.48,28.57-13.19,2-3.51,2.31-6.57.81-8.31s-3.79-2-6.49-1.1h0a6.52,6.52,0,0,1-3.34,0,1.66,1.66,0,0,1-.9-2.75c1-1.11,1.93-2.21,2.8-3.32.57-.68,1.1-1.33,1.67-1.93,2.37-2.73,3.57-5.52,3.1-7.28a3.33,3.33,0,0,0-2.4-2.17c-2.54-.89-5,1.67-10.48,7.29-2.13,2.24-6.47,3-12.86,2.38a1.55,1.55,0,0,1-.53-.15c-12.73-6-26.38-13.31-26.53-13.44a1.66,1.66,0,0,1,.22-3,89.16,89.16,0,0,0,9.06-4c5.35-2.86,8.75-9.81,7.69-12.22-.62-1.4-3.49-.57-4.71-.14-12.21,4.28-18.22,6.65-30.56,11.84-4.79,2.05-9.13,4.23-13.35,6.34-5.39,2.69-10.93,5.49-17.65,8.1L666,382.13c1.23-.5,3-1.23,5-2a19.26,19.26,0,0,1,7-1.2Z"/><path d="M696.71,363.11h-.48a1.67,1.67,0,1,1,0-3.33h.17c1.83,0,6.32-.15,8.85-3.32,2.06-2.52,2.46-6.47,1.19-11.78a1.67,1.67,0,0,1,3.17-1,1.22,1.22,0,0,1,.06.26c1.54,6.35.92,11.27-1.83,14.63C704.57,362.58,699.28,363.11,696.71,363.11Z"/><path d="M730.83,376a1.66,1.66,0,0,1-1.67-1.54l-1-13.59a1.66,1.66,0,0,1,3.32-.25l1.07,13.59A1.67,1.67,0,0,1,731,376Z"/><path d="M743.44,370.09a51.24,51.24,0,0,1-13.13-2.61,1.66,1.66,0,1,1,1.05-3.16c2.72.9,10.51,3.08,13.78,2.3a53.34,53.34,0,0,0,8-2.66,1.67,1.67,0,1,1,1.37,3,57.93,57.93,0,0,1-8.61,2.86A10.77,10.77,0,0,1,743.44,370.09Z"/><path d="M741.79,378a43.35,43.35,0,0,1-11.16-2.23,1.67,1.67,0,0,1,1-3.17h0c3.15,1.05,9.08,2.51,11.46,1.93a41.24,41.24,0,0,0,6.68-2.23,1.68,1.68,0,0,1,2.2.85h0a1.66,1.66,0,0,1-.84,2.19,44.23,44.23,0,0,1-7.29,2.43A9.25,9.25,0,0,1,741.79,378Z"/></g><g class="cls-7"><rect class="cls-6" x="1127.84" y="466.59" width="28.38" height="418.87"/><path d="M1156.23,887.23h-28.31a1.75,1.75,0,0,1-1.75-1.75V466.59a1.75,1.75,0,0,1,1.75-1.75h28.4a1.75,1.75,0,0,1,1.76,1.75V885.48a1.75,1.75,0,0,1-1.76,1.75Zm-26.64-3.51h24.89V468.34h-24.8Z"/><path class="cls-6" d="M1159,876.08H1125l-182,68.13c-30,7.66,83.29,31.67,197.32,32.91,117.16,1.34,235.07-20.34,198.77-33Z"/><path class="cls-3" d="M1119.48,878s-109.41,50.12-105.37,64,15.7,25.52,44.84,30.88c-55.15-3.5-122.84-18.35-121.05-26.85C950.89,941.51,1119.48,878,1119.48,878Z"/><path d="M1150.61,979h-10.25a987.13,987.13,0,0,1-138.73-11.67c-23.94-3.93-64.24-11.59-65.12-19.65-.4-3.42,4.39-4.71,6.11-5.15l181.79-68.09a1.66,1.66,0,0,1,.62-.11H1159a1.66,1.66,0,0,1,.62.11l180.19,68.12c2.07.74,8.53,3,7.74,7.49-1.75,9.64-42.7,16.84-67,20.27A963,963,0,0,1,1150.61,979ZM940,947.33c3.34,7.45,94,26.85,200.44,28,108.72,1.23,202-16.44,203.71-26,.1-.58-.93-2-5.5-3.51l-180-68h-33.37l-181.59,68h-.18A8.25,8.25,0,0,0,940,947.33Z"/><path d="M1127.33,479.47s19.68,3.35,28.1,34.23c.56-15.44,1.75-35.58,1.75-35.58Z"/><polygon points="1154.67 877.06 1287.83 967.01 1330.88 957.39 1160.96 876.17 1154.67 877.06"/><polygon points="1151.47 876.84 1266.32 969.25 1234.05 973.06 1146.1 876.84 1151.47 876.84"/><path d="M1421,452.86V430.29H1264.69c-37-1.75-78.55-2.68-122.49-2.68s-85.57.93-122.56,2.68H862.76V455h.47c5.5,14.14,128.19,25.46,278.9,25.46,154.15,0,279.11-11.84,279.11-26.46A2.86,2.86,0,0,0,1421,452.86Z"/><path d="M1142.13,482.19c-128.35,0-268.21-9-280-25.61A1.74,1.74,0,0,1,861,455V430.29a1.75,1.75,0,0,1,1.76-1.75h156.88c38.25-1.76,79.49-2.68,122.49-2.68s84.29.91,122.56,2.68H1421a1.75,1.75,0,0,1,1.76,1.75v22.24A4.17,4.17,0,0,1,1423,454c0,3.12,0,12.57-83.34,20.45C1286.89,479.37,1216.73,482.19,1142.13,482.19ZM864.51,453.76a1.44,1.44,0,0,1,.35.58c4.57,11.74,117.06,24.34,277.27,24.34,74.49,0,144.53-2.75,197.19-7.75,77.92-7.34,80.12-16,80.12-17a1.11,1.11,0,0,0-.13-.4,2,2,0,0,1-.14-.71V432H1264.64c-38.36-1.75-79.54-2.68-122.49-2.68s-84.13.91-122.4,2.68H864.51Z"/><ellipse class="cls-6" cx="1141.99" cy="432.2" rx="279.11" ry="26.45"/><path d="M1142,460.4c-74.59,0-144.75-2.75-197.52-7.75-83.33-7.9-83.33-17.35-83.33-20.45s0-12.55,83.35-20.45c52.77-5,122.92-7.75,197.5-7.75s144.79,2.75,197.56,7.75C1423,419.65,1423,429.1,1423,432.2s0,12.55-83.33,20.45C1286.76,457.65,1216.61,460.4,1142,460.4Zm0-52.89c-74.47,0-144.5,2.75-197.17,7.74-77.9,7.38-80.16,16-80.16,16.95s2.26,9.57,80.16,17c52.68,5,122.7,7.73,197.19,7.73s144.54-2.76,197.21-7.73c77.9-7.4,80.24-16,80.24-17s-2.25-9.57-80.15-16.95C1286.53,410.26,1216.5,407.51,1142,407.51Z"/></g><g class="cls-8"><path class="cls-3" d="M721.77,376a94.44,94.44,0,0,0,31.91,0,71.07,71.07,0,0,0,7.51-9.62c7.23-1.89,24.19-7.48,25.93-18.79.9-5.8-.43-10.1-4-12.82s-8-2.84-11.69-2.48V328.5H706C704.08,346.19,709,362.06,721.77,376Zm43.59-17.63a64.87,64.87,0,0,0,5.08-18.59c2.68-.41,5.95-.49,7.64.79s1.6,4.34,1.31,6.63c-.75,4.87-7.58,8.7-14,11.2Z"/><path class="cls-6" d="M750.41,366.17a6.85,6.85,0,0,0-5.48,11,83.75,83.75,0,0,0,8.79-1.1c1.23-1.33,2.39-2.71,3.49-4.09A6.85,6.85,0,0,0,750.41,366.17Z"/><path class="cls-6" d="M762,336.83a6.87,6.87,0,0,0,6.86,6.87,7.45,7.45,0,0,0,1-.09c.23-1.25.43-2.52.59-3.79a19,19,0,0,1,4.82-.19,6.76,6.76,0,0,0-1.18-7.37,18.87,18.87,0,0,0-2.53.11v-1.9A6.74,6.74,0,0,0,769,330a6.86,6.86,0,0,0-7,6.76Z"/><path class="cls-6" d="M720.29,345.58a6.88,6.88,0,1,0-6.89,6.85h0a6.86,6.86,0,0,0,6.86-6.85Z"/><path class="cls-6" d="M751.17,356.42a6.87,6.87,0,1,0-6.88-6.87v0a6.86,6.86,0,0,0,6.86,6.85Z"/><path class="cls-6" d="M724.54,361.05a6.88,6.88,0,1,0,6.88-6.87,6.88,6.88,0,0,0-6.88,6.87Z"/><ellipse class="cls-6" cx="733.93" cy="336.07" rx="6.88" ry="6.87"/><path d="M738.21,379.08a101,101,0,0,1-12.53-.79,11.92,11.92,0,0,1-7.84-4.34,59.21,59.21,0,0,1-13.42-45.58,1.6,1.6,0,0,1,1.6-1.43h65.43a1.61,1.61,0,0,1,1.61,1.6v2.18a17,17,0,0,1,11.13,2.87c4,3.05,5.58,7.85,4.59,14.29-1.93,12-18.77,17.82-26.58,20-1.38,2.07-2.89,4.09-4.47,6a12.49,12.49,0,0,1-8,4.44A88.59,88.59,0,0,1,738.21,379.08Zm-30.75-48.93a55.41,55.41,0,0,0,12.83,41.78A8.71,8.71,0,0,0,726,375h0a92.29,92.29,0,0,0,23.19.08,9.34,9.34,0,0,0,6.09-3.3,69.9,69.9,0,0,0,4.59-6.27,1.64,1.64,0,0,1,.94-.67c6.9-1.8,23.15-7.12,24.75-17.48.82-5.18-.32-9-3.34-11.22s-7.45-2.47-10.56-2.16a1.66,1.66,0,0,1-1.26-.42,1.61,1.61,0,0,1-.51-1.2v-2.21ZM765.36,360a1.6,1.6,0,0,1-1.62-1.58,1.67,1.67,0,0,1,.14-.67,63.3,63.3,0,0,0,5-18.16,1.59,1.59,0,0,1,1.34-1.39c2.81-.43,6.61-.6,8.84,1.09,1.91,1.44,2.55,4.2,1.94,8.15-.91,5.84-8.68,10-15,12.45A1.66,1.66,0,0,1,765.36,360Zm6.51-18.79a66.66,66.66,0,0,1-3.56,14.18c5.66-2.66,9.06-5.66,9.46-8.4s.15-4.48-.7-5.12A8.4,8.4,0,0,0,771.87,341.25Z"/><ellipse cx="738.53" cy="327.73" rx="32.57" ry="3.12"/><path d="M738.53,332.47c-34.16,0-34.16-3.57-34.16-4.66s0-4.81,34.16-4.81,34.18,3.56,34.18,4.81S772.71,332.47,738.53,332.47Zm-27.89-4.66a244,244,0,0,0,55.79,0,242.46,242.46,0,0,0-55.79,0Z"/></g><g class="cls-9"><path class="cls-6" d="M729.11,308c19.2-19.53,8.2-31.77.24-38.65-13.87-12-14.5-25.22-9.49-33.33,20.87-34.12,140.8-35,84.87-73.6S838.38,80.5,838.38,80.5c19.44-10.93,37.13-11.87,52.39.4,0,0-106.18,36.14-74.9,65.56S859.8,195,765,222c-63.52,18.07-29.21,40.49-22.4,47.27C757.09,283.64,745,297.71,729.11,308Z"/><path class="cls-6" d="M750.42,306.74c16.36-14.49,21.56-25.45,10.44-37.82-17.79-19.73-12.09-28.25,30.09-41.27S940.29,196.44,904.22,167s-78.21-45,1.43-87.8c22.28-12.22,46.55-4.2,49.29,0-56.83,28.56-94.3,37.19-41.66,69.31C959.9,177,948.37,196,851.19,222.08c-87.4,23.42-94.34,27.77-81.55,41.6C785,280.25,776.75,293.5,750.42,306.74Z"/></g><g class="cls-10"><ellipse cx="981.16" cy="425.83" rx="65.84" ry="9.17"/><path class="cls-3" d="M1023.72,405.82H914.87l19.1,16h0c1.87,2.25,17.38,4,36.23,4s34.38-1.75,36.28-4h.14Z"/><path d="M970.26,427.38c-12.08,0-33-.9-37-4.22A.74.74,0,0,1,933,423l-19.14-16a1.57,1.57,0,0,1-.2-2.19,1.55,1.55,0,0,1,1.19-.56h108.85a1.56,1.56,0,0,1,1,2.69l-17.09,16a1.24,1.24,0,0,1-.5.31C1002.79,426.5,982.21,427.38,970.26,427.38Zm-35.48-6.9a1.66,1.66,0,0,1,.44.36c1.45,1.43,14.46,3.44,35,3.44s33.58-2,35-3.52a1.6,1.6,0,0,1,.58-.42l13.89-13H919.13Z"/><ellipse cx="968.64" cy="404.3" rx="55.1" ry="5.26"/><path d="M968.64,411.13c-14.76,0-28.65-.56-39.1-1.55C913.34,408,912,406.2,912,404.32s1.34-3.72,17.54-5.28c10.45-1,24.34-1.55,39.1-1.55s28.66.56,39.12,1.55c16.2,1.56,17.54,3.39,17.54,5.28s-1.34,3.71-17.54,5.26C997.31,410.57,983.41,411.13,968.64,411.13Zm-52.55-6.81c5,1.71,23.87,3.71,52.55,3.71s47.51-2,52.56-3.71c-5.05-1.72-23.87-3.72-52.56-3.72S921.13,402.6,916.09,404.32Z"/><ellipse cx="970.43" cy="354.14" rx="7.88" ry="7.93"/><path d="M971.51,353.1A1.09,1.09,0,0,1,971,353a1.56,1.56,0,0,1-1-1.94c.18-.57,4.63-14,17-14.08h0a1.55,1.55,0,1,1,0,3.1c-10.18.16-14,11.45-14.15,11.93A1.54,1.54,0,0,1,971.51,353.1Z"/><rect class="cls-6" x="940.75" y="368.07" width="57.46" height="39.77"/><path d="M998.21,409.38H940.75a1.55,1.55,0,0,1-1.55-1.56V368a1.55,1.55,0,0,1,1.55-1.55h57.46a1.55,1.55,0,0,1,1.54,1.55v39.8A1.55,1.55,0,0,1,998.21,409.38Zm-55.92-3.11h54.38v-36.7H942.29Z"/><rect x="940.75" y="368.07" width="16.66" height="39.77"/><path d="M957.41,409.38H940.75a1.55,1.55,0,0,1-1.55-1.56V368a1.55,1.55,0,0,1,1.55-1.55h16.66A1.55,1.55,0,0,1,959,368v39.8A1.55,1.55,0,0,1,957.41,409.38Zm-15.12-3.11h13.58v-36.7H942.29Z"/><path d="M940.5,377.9a141.21,141.21,0,0,0,17.08.76,186.25,186.25,0,0,1,23.86-.24,135,135,0,0,0,15.58.07l.17,4.78s-20.06,0-25-.51-18.52,1.55-24.06,1.29-7.76-.52-7.76-.52Z"/><path d="M997.05,397.32s-12.11-.6-17.08-.73-18.52.81-23.89.24a137.24,137.24,0,0,0-15.58-.1l-.17-4.65s19.24-.57,24.21-.17,19.41-.82,24.89-.57,7.71.49,7.71.49Z"/><path class="cls-3" d="M940.67,358.56H999a5.49,5.49,0,0,1,5.48,5.5h0a5.49,5.49,0,0,1-5.48,5.5H940.67a5.49,5.49,0,0,1-5.48-5.5h0A5.49,5.49,0,0,1,940.67,358.56Z"/><path d="M999,371.12H940.65a7.05,7.05,0,0,1,0-14.09H999a7.05,7.05,0,0,1,.66,14.09A3.64,3.64,0,0,1,999,371.12Zm-58.39-11a4,4,0,0,0,0,7.9H999a4,4,0,0,0,.5-7.9H940.65Z"/></g></svg>